<?xml version="1.0" encoding="iso-8859-1"?>
<!-- Generator: Adobe Illustrator 19.0.0, SVG Export Plug-In . SVG Version: 6.00 Build 0)  -->
<svg version="1.1" id="Capa_1" xmlns="http://www.w3.org/2000/svg" xmlns:xlink="http://www.w3.org/1999/xlink" x="0px" y="0px"
	 viewBox="0 0 512 512" style="enable-background:new 0 0 512 512;" xml:space="preserve">
<polygon style="fill:#FFBD86;" points="368.2,352.899 256,443.599 154.9,342.7 175.6,344.2 177.1,301 334.9,301 355,356.199 "/>
<polygon style="fill:#F6A96C;" points="368.2,352.899 256,443.599 256,301 334.9,301 355,356.199 "/>
<path style="fill:#FED2A4;" d="M361,181v45c0,57.9-47.1,105-105,105s-105-47.1-105-105v-45l43.801-30H304L361,181z"/>
<path style="fill:#FFBD86;" d="M361,181v45c0,57.9-47.1,105-105,105V151h47.999L361,181z"/>
<rect x="391" y="113.31" style="fill:#FF9F00;" width="30" height="112.69"/>
<path style="fill:#53433F;" d="M256,0L61,106l104.099,56.4h181.802L451,106L256,0z"/>
<polygon style="fill:#3E322E;" points="346.901,162.4 256,162.4 256,0 451,106 "/>
<path style="fill:#68544F;" d="M286,91h-60c-41.4,0-75,33.6-75,75v15h210v-15C361,124.6,327.4,91,286,91z"/>
<path style="fill:#53433F;" d="M361,166v15H256V91h30C327.4,91,361,124.6,361,166z"/>
<path style="fill:#FF9F00;" d="M301,226c0,24.899-20.099,45-45,45s-45-20.101-45-45h30c0,8.399,6.599,15,15,15s15-6.601,15-15H301z"
	/>
<path style="fill:#FF7816;" d="M256,271v-30c8.401,0,15-6.601,15-15h30C301,250.899,280.901,271,256,271z"/>
<path style="fill:#68544F;" d="M451,403.299V512H61V403.299c0-25.199,9-47.999,24-66l69.9,5.401L256,443.599l112.2-90.7l58.8-15.6
	C442,355.3,451,378.1,451,403.299z"/>
<path style="fill:#53433F;" d="M451,403.299V512H256v-68.401l112.2-90.7l58.8-15.6C442,355.3,451,378.1,451,403.299z"/>
<path style="fill:#FFD400;" d="M334.9,301L256,376.3L177.1,301c-30,0-61.5,1.5-92.1,36.299l171,164.2l171-164.2
	C395.799,301.599,364.9,301,334.9,301z"/>
<path style="fill:#FDBF00;" d="M427,337.299l-171,164.2V376.3l78.9-75.3C364.9,301,395.799,301.599,427,337.299z"/>
<g>
</g>
<g>
</g>
<g>
</g>
<g>
</g>
<g>
</g>
<g>
</g>
<g>
</g>
<g>
</g>
<g>
</g>
<g>
</g>
<g>
</g>
<g>
</g>
<g>
</g>
<g>
</g>
<g>
</g>
</svg>
