<?xml version="1.0" encoding="iso-8859-1"?>
<!-- Generator: Adobe Illustrator 19.0.0, SVG Export Plug-In . SVG Version: 6.00 Build 0)  -->
<svg version="1.1" id="Capa_1" xmlns="http://www.w3.org/2000/svg" xmlns:xlink="http://www.w3.org/1999/xlink" x="0px" y="0px"
	 viewBox="0 0 512 512" style="enable-background:new 0 0 512 512;" xml:space="preserve">
<path style="fill:#CAE8F9;" d="M467,15.994H45c-24.902,0-45,20.099-45,45v300c0,24.899,20.098,45,45,45h46v75
	c0,6,3.6,11.4,9.302,13.799c5.398,2.401,11.997,1.201,16.198-3.3l85.8-85.499H467c24.902,0,45-20.101,45-45v-300
	C512,36.093,491.902,15.994,467,15.994z"/>
<path style="fill:#B7E0F6;" d="M512,60.994v300c0,24.899-20.098,45-45,45H256v-390h211C491.902,15.994,512,36.093,512,60.994z"/>
<path style="fill:#1689FC;" d="M346,105.994h-30c-24.814,0-45,20.186-45,45v30c0,24.814,20.186,45,45,45h30
	c4.417,0,8.599-0.837,12.634-2.029c-5.925,27.29-23.584,50.731-49.343,63.611c-7.412,3.706-10.4,12.715-6.709,20.127
	c3.654,7.288,12.534,10.454,20.127,6.709C364.838,293.347,391,251.014,391,203.919c0-5.741,0-46.146,0-52.925
	C391,126.179,370.814,105.994,346,105.994z"/>
<path style="fill:#18A7FC;" d="M196,105.994h-30c-24.814,0-45,20.186-45,45v30c0,24.814,20.186,45,45,45h30
	c4.417,0,8.599-0.837,12.634-2.029c-5.925,27.29-23.584,50.731-49.343,63.611c-7.412,3.706-10.4,12.715-6.709,20.127
	c3.654,7.288,12.534,10.454,20.127,6.709C214.838,293.347,241,251.014,241,203.919c0-5.741,0-46.146,0-52.925
	C241,126.179,220.814,105.994,196,105.994z"/>
<g>
</g>
<g>
</g>
<g>
</g>
<g>
</g>
<g>
</g>
<g>
</g>
<g>
</g>
<g>
</g>
<g>
</g>
<g>
</g>
<g>
</g>
<g>
</g>
<g>
</g>
<g>
</g>
<g>
</g>
</svg>
