<?xml version="1.0" encoding="iso-8859-1"?>
<!-- Generator: Adobe Illustrator 19.0.0, SVG Export Plug-In . SVG Version: 6.00 Build 0)  -->
<svg version="1.1" id="Layer_1" xmlns="http://www.w3.org/2000/svg" xmlns:xlink="http://www.w3.org/1999/xlink" x="0px" y="0px"
	 viewBox="0 0 512 512" style="enable-background:new 0 0 512 512;" xml:space="preserve">
<circle style="fill:#273B7A;" cx="256" cy="256" r="256"/>
<path style="fill:#121149;" d="M275.94,511.231c110.061-8.48,200.618-86.561,227.74-190.297L361.624,178.878L244.571,350.303
	l10.804,10.804l-100.333,29.225L275.94,511.231z"/>
<path style="fill:#FFAA00;" d="M296.439,113.693H171.613c-11.729,0-21.237,9.509-21.237,21.237v242.14
	c0,11.729,9.509,21.237,21.237,21.237h168.774c11.729,0,21.237-9.509,21.237-21.237V178.878L296.439,113.693z"/>
<path style="fill:#FFD479;" d="M317.676,178.878h43.948l-65.184-65.184v43.948C296.439,169.37,305.947,178.878,317.676,178.878z"/>
<path style="fill:#FFFFFF;" d="M271.319,240.414v-20.923h-84.151v82.944h53.515v20.925h84.151v-82.946H271.319z M194.062,226.387
	h70.359v69.153h-70.359V226.387z M317.938,316.464h-70.359v-14.029h23.74v-55.127h46.62V316.464z"/>
<g>
</g>
<g>
</g>
<g>
</g>
<g>
</g>
<g>
</g>
<g>
</g>
<g>
</g>
<g>
</g>
<g>
</g>
<g>
</g>
<g>
</g>
<g>
</g>
<g>
</g>
<g>
</g>
<g>
</g>
</svg>
